<svg xmlns="http://www.w3.org/2000/svg" viewBox="320 8495 55 55"><path d="M355.66 8511.3C354.51 8511.3 353.58 8512.23 353.58 8513.38C353.58 8514.53 354.51 8515.47 355.66 8515.47C356.81 8515.47 357.74 8514.53 357.74 8513.38C357.74 8512.23 356.81 8511.3 355.66 8511.3" fill="#ffffff"/><path d="M346.4 8528.32C343.31 8528.32 340.8 8525.81 340.8 8522.72C340.8 8519.63 343.31 8517.12 346.4 8517.12C349.49 8517.12 352.01 8519.63 352.01 8522.72C352.01 8525.81 349.49 8528.32 346.4 8528.32M346.4 8513.97C341.58 8513.97 337.66 8517.9 337.66 8522.72C337.66 8527.54 341.58 8531.46 346.4 8531.46C351.23 8531.46 355.15 8527.54 355.15 8522.72C355.15 8517.9 351.23 8513.97 346.4 8513.97" fill="#ffffff"/><path d="M339.17 8508.3C335.13 8508.3 331.84 8511.59 331.84 8515.63L331.84 8529.81C331.84 8533.85 335.13 8537.13 339.17 8537.13L353.35 8537.13C357.39 8537.13 360.67 8533.85 360.67 8529.81L360.67 8515.63C360.67 8511.59 357.39 8508.3 353.35 8508.3L339.17 8508.3M353.35 8540.47L339.17 8540.47C333.29 8540.47 328.5 8535.69 328.5 8529.81L328.5 8515.63C328.5 8509.75 333.29 8504.96 339.17 8504.96L353.35 8504.96C359.23 8504.96 364.02 8509.75 364.02 8515.63L364.02 8529.81C364.02 8535.69 359.23 8540.47 353.35 8540.47" fill="#ffffff"/></svg>